<?xml version="1.0" encoding="utf-8"?>
<svg viewBox="0 0 200 200" style="enable-background:new 0 0 200 200;" xmlns="http://www.w3.org/2000/svg">
  <defs>
    <style type="text/css">
	.st0{fill:#d32f2f;}
	.st1{font-family:'SamsungSharpSans-Bold';}
	.st2{font-size:31.3881px;}
</style>
  </defs>
  <g style="" transform="matrix(1.859245, 0, 0, 1.598824, -88.305878, -16.343712)">
    <g>
      <g style="opacity: 0.88;">
        <g>
          <path class="st0" d="M86.7,121.1l13.3,7.7V91.1l-14.8-27v54.4C85.2,119.6,85.8,120.6,86.7,121.1z"/>
        </g>
      </g>
      <g style="opacity: 0.88;">
        <g>
          <path class="st0" d="M68.8,105.6V42.4c0-2.3-2.5-3.7-4.4-2.6l-10.3,5.9c-0.9,0.5-1.5,1.5-1.5,2.6v51.3c0,1.1,0.6,2,1.5,2.6 l10.3,5.9C66.3,109.3,68.8,107.9,68.8,105.6z"/>
        </g>
      </g>
      <g>
        <g>
          <path class="st0" d="M100,57V19.3l-13.5,7.8c-0.8,0.5-1.3,1.3-1.3,2.3l0,0c0,0.4,0.1,0.9,0.3,1.3L100,57z" style="filter: none; opacity: 0.88;"/>
        </g>
      </g>
    </g>
    <g>
      <g>
        <g>
          <path class="st0" d="M135.6,108.2l10.3-5.9c0.9-0.5,1.5-1.5,1.5-2.6V48.4c0-1.1-0.6-2-1.5-2.6l-10.3-5.9c-2-1.1-4.4,0.3-4.4,2.6 v63.2C131.2,107.9,133.7,109.3,135.6,108.2z"/>
        </g>
      </g>
      <g>
        <g>
          <path class="st0" d="M114.8,118.7L114.8,118.7c0-0.4-0.1-0.9-0.3-1.3L100,91.1v37.7l13.5-7.8 C114.3,120.5,114.8,119.7,114.8,118.7z"/>
        </g>
      </g>
      <g>
        <g>
          <path class="st0" d="M114.8,83.9V29.5c0-1.1-0.6-2-1.5-2.6L100,19.3V57L114.8,83.9z"/>
        </g>
      </g>
    </g>
  </g>
</svg>